# Blender 4.0.2
# www.blender.org
mtllib Floor_Dungon.mtl
o Plane.001
v 5.000000 0.000000 3.888889
v 5.000000 0.000000 2.777778
v 5.000000 0.000000 1.666667
v 5.000000 0.000000 0.555556
v 5.000000 0.000000 -0.555556
v 5.000000 0.000000 -1.666667
v 5.000000 0.000000 -2.777778
v 5.000000 0.000000 -3.888889
v 5.000000 5.000000 3.888889
v 5.000000 5.000000 2.777778
v 5.000000 5.000000 1.666667
v 5.000000 5.000000 0.555556
v 5.000000 5.000000 -0.555556
v 5.000000 5.000000 -1.666667
v 5.000000 5.000000 -2.777778
v 5.000000 5.000000 -3.888889
v 5.145036 1.666667 -3.888889
v 5.145036 3.333333 -3.888889
v 5.145036 1.666667 -2.777778
v 5.145036 3.333333 -2.777778
v 5.145036 1.666667 -1.666667
v 5.145036 3.333333 -1.666667
v 5.145036 1.666667 -0.555556
v 5.145036 3.333333 -0.555556
v 5.145036 1.666667 0.555556
v 5.145036 3.333333 0.555556
v 5.145036 1.666667 1.666667
v 5.145036 3.333333 1.666667
v 5.145036 1.666667 2.777778
v 5.145036 3.333333 2.777778
v 5.145036 1.666667 3.888889
v 5.145036 3.333333 3.888889
v 4.546736 0.000000 -3.888889
v 4.546736 0.000000 -5.000000
v 4.546736 5.000000 -3.888889
v 4.546736 5.000000 -5.000000
v 4.691772 1.666667 -5.000000
v 4.691772 3.333333 5.000000
v 4.546736 5.000000 5.000000
v 4.546736 0.000000 5.000000
v 4.546736 0.000000 3.888889
v 4.546736 5.000000 3.888889
v 4.691772 3.333333 -3.888889
v 4.691772 3.333333 3.888889
v 4.691772 3.333333 -5.000000
v 4.691772 1.666667 5.000000
v 4.691772 1.666667 -3.888889
v 4.691772 1.666667 3.888889
vn -0.0000 -0.0000 1.0000
vn -0.9962 -0.0867 -0.0000
vn -0.9962 0.0867 -0.0000
vn -1.0000 -0.0000 -0.0000
vn -0.0000 -0.0000 -1.0000
vt 1.000000 0.888889
vt 1.000000 0.888889
vt 1.000000 0.777778
vt 1.000000 0.666667
vt 1.000000 0.666667
vt 1.000000 0.555556
vt 1.000000 0.444444
vt 1.000000 0.333333
vt 1.000000 0.333333
vt 1.000000 0.222222
vt 1.000000 0.222222
vt 1.000000 0.111111
vt 1.000000 0.111111
vt 1.000000 0.000000
vt 1.000000 1.000000
s 0
f 18/1/1 16/2/1 35/2/1 43/1/1
f 18/1/2 20/3/2 15/3/2 16/2/2
f 20/3/2 22/4/2 14/5/2 15/3/2
f 22/4/2 24/6/2 13/6/2 14/5/2
f 24/6/2 26/7/2 12/7/2 13/6/2
f 26/7/2 28/8/2 11/9/2 12/7/2
f 28/8/2 30/10/2 10/11/2 11/9/2
f 30/10/2 32/12/2 9/13/2 10/11/2
f 2/11/3 1/13/3 31/12/3 29/10/3
f 29/10/4 31/12/4 32/12/4 30/10/4
f 3/9/3 2/11/3 29/10/3 27/8/3
f 27/8/4 29/10/4 30/10/4 28/8/4
f 4/7/3 3/9/3 27/8/3 25/7/3
f 25/7/4 27/8/4 28/8/4 26/7/4
f 5/6/3 4/7/3 25/7/3 23/6/3
f 23/6/4 25/7/4 26/7/4 24/6/4
f 6/5/3 5/6/3 23/6/3 21/4/3
f 21/4/4 23/6/4 24/6/4 22/4/4
f 7/3/3 6/5/3 21/4/3 19/3/3
f 19/3/4 21/4/4 22/4/4 20/3/4
f 8/2/3 7/3/3 19/3/3 17/2/3
f 17/2/4 19/3/4 20/3/4 18/1/4
f 9/13/5 32/12/5 44/12/5 42/13/5
f 17/2/1 18/1/1 43/1/1 47/2/1
f 44/12/2 38/14/2 39/14/2 42/13/2
f 45/15/2 43/1/2 35/2/2 36/15/2
f 34/15/3 33/2/3 47/2/3 37/15/3
f 37/15/4 47/2/4 43/1/4 45/15/4
f 41/13/3 40/14/3 46/14/3 48/12/3
f 48/12/4 46/14/4 38/14/4 44/12/4
f 31/12/5 1/13/5 41/13/5 48/12/5
f 8/2/1 17/2/1 47/2/1 33/2/1
f 32/12/5 31/12/5 48/12/5 44/12/5
o Plane.002
v 4.546736 5.000000 -3.888889
v 4.546736 5.000000 -5.000000
v 4.546736 5.000000 5.000000
v 4.546736 5.000000 3.888889
v -5.000000 0.000000 5.000000
v 5.000000 0.000000 5.000000
v -5.000000 0.000000 -5.000000
v 5.000000 0.000000 -5.000000
v 5.000000 5.000000 5.000000
v 5.000000 5.000000 -5.000000
v 10.000000 5.000000 5.000000
v 10.000000 5.000000 -5.000000
v 5.000000 5.000000 3.888889
v 5.000000 5.000000 2.777778
v 5.000000 5.000000 1.666667
v 5.000000 5.000000 0.555556
v 5.000000 5.000000 -0.555556
v 5.000000 5.000000 -1.666667
v 5.000000 5.000000 -2.777778
v 5.000000 5.000000 -3.888889
v 10.000000 5.000000 3.888889
v 10.000000 5.000000 2.777778
v 10.000000 5.000000 1.666667
v 10.000000 5.000000 0.555556
v 10.000000 5.000000 -0.555556
v 10.000000 5.000000 -1.666667
v 10.000000 5.000000 -2.777778
v 10.000000 5.000000 -3.888889
vn -0.0000 1.0000 -0.0000
vt 0.000000 0.000000
vt 1.000000 0.000000
vt 1.000000 1.000000
vt 0.000000 1.000000
vt 1.000000 0.111111
vt 1.000000 0.888889
vt 1.000000 0.777778
vt 1.000000 0.666667
vt 1.000000 0.555556
vt 1.000000 0.444444
vt 1.000000 0.333333
vt 1.000000 0.222222
s 0
f 53/16/6 54/17/6 56/18/6 55/19/6
f 61/20/6 57/17/6 59/17/6 69/20/6
f 58/18/6 68/21/6 76/21/6 60/18/6
f 68/21/6 67/22/6 75/22/6 76/21/6
f 67/22/6 66/23/6 74/23/6 75/22/6
f 66/23/6 65/24/6 73/24/6 74/23/6
f 65/24/6 64/25/6 72/25/6 73/24/6
f 64/25/6 63/26/6 71/26/6 72/25/6
f 63/26/6 62/27/6 70/27/6 71/26/6
f 62/27/6 61/20/6 69/20/6 70/27/6
f 57/17/6 61/20/6 52/20/6 51/17/6
f 68/21/6 58/18/6 50/18/6 49/21/6
