# Blender 4.0.2
# www.blender.org
mtllib Floor_Dungon.mtl
o Plane.002
v 4.546736 5.000000 -3.888889
v 4.546736 5.000000 -5.000000
v 4.546736 5.000000 5.000000
v 4.546736 5.000000 3.888889
v -5.000000 0.000000 5.000000
v 5.000000 0.000000 5.000000
v -5.000000 0.000000 -5.000000
v 5.000000 0.000000 -5.000000
v 5.000000 5.000000 5.000000
v 5.000000 5.000000 -5.000000
v 10.000000 5.000000 5.000000
v 10.000000 5.000000 -5.000000
v 5.000000 5.000000 3.888889
v 5.000000 5.000000 2.777778
v 5.000000 5.000000 1.666667
v 5.000000 5.000000 0.555556
v 5.000000 5.000000 -0.555556
v 5.000000 5.000000 -1.666667
v 5.000000 5.000000 -2.777778
v 5.000000 5.000000 -3.888889
v 10.000000 5.000000 3.888889
v 10.000000 5.000000 2.777778
v 10.000000 5.000000 1.666667
v 10.000000 5.000000 0.555556
v 10.000000 5.000000 -0.555556
v 10.000000 5.000000 -1.666667
v 10.000000 5.000000 -2.777778
v 10.000000 5.000000 -3.888889
vn -0.0000 1.0000 -0.0000
vt 0.000000 0.000000
vt 1.000000 0.000000
vt 1.000000 1.000000
vt 0.000000 1.000000
vt 1.000000 0.111111
vt 1.000000 0.888889
vt 1.000000 0.777778
vt 1.000000 0.666667
vt 1.000000 0.555556
vt 1.000000 0.444444
vt 1.000000 0.333333
vt 1.000000 0.222222
s 0
f 5/1/1 6/2/1 8/3/1 7/4/1
f 13/5/1 9/2/1 11/2/1 21/5/1
f 10/3/1 20/6/1 28/6/1 12/3/1
f 20/6/1 19/7/1 27/7/1 28/6/1
f 19/7/1 18/8/1 26/8/1 27/7/1
f 18/8/1 17/9/1 25/9/1 26/8/1
f 17/9/1 16/10/1 24/10/1 25/9/1
f 16/10/1 15/11/1 23/11/1 24/10/1
f 15/11/1 14/12/1 22/12/1 23/11/1
f 14/12/1 13/5/1 21/5/1 22/12/1
f 9/2/1 13/5/1 4/5/1 3/2/1
f 20/6/1 10/3/1 2/3/1 1/6/1
