# Blender 4.0.2
# www.blender.org
mtllib Rock_Small_Var1.mtl
o Rock1_LOD1
v -23.055511 -0.014079 -22.101868
v -23.226004 -0.019200 -21.713526
v -23.376266 -0.014072 -22.230179
v -23.175047 0.545087 -22.091217
v -23.315931 0.484366 -21.754271
v -23.326143 0.536988 -22.154528
v -23.516218 0.452486 -22.054827
v -23.564129 -0.019200 -22.151705
v -23.685036 0.281333 -21.965446
v -23.458267 0.350534 -21.635298
v -23.763721 -0.014221 -22.025053
v -23.433796 -0.014021 -21.554268
vn 0.5680 0.1873 0.8014
vn 0.8162 0.1935 0.5444
vn 0.8962 0.1880 0.4018
vn -0.5773 0.7716 0.2672
vn -0.4422 0.8713 0.2129
vn -0.0031 -1.0000 0.0001
vn -0.0031 -1.0000 0.0002
vn 0.0045 -1.0000 0.0077
vn -0.8216 0.0858 0.5636
vn -0.5076 0.2185 -0.8334
vn -0.5718 0.2535 -0.7802
vn -0.4552 0.1904 -0.8698
vn 0.3732 0.0951 -0.9229
vn -0.2464 0.9601 0.1325
vn -0.0102 -0.9999 -0.0070
vt 0.109424 0.934041
vt 0.111392 0.953901
vt 0.071891 0.954217
vt 0.080547 0.939264
vt 0.111392 0.986964
vt 0.067715 0.982627
vt 0.440931 0.008238
vt 0.437463 0.025221
vt 0.410621 0.021381
vt 0.410339 0.001854
vt 0.949487 0.954850
vt 0.990567 0.987158
vt 0.946214 0.988912
vt 0.946214 0.970505
vt 0.149614 0.768382
vt 0.149614 0.812588
vt 0.121238 0.806386
vt 0.126534 0.775288
vt 0.976335 0.314588
vt 0.973821 0.332733
vt 0.950289 0.326445
vt 0.939314 0.310365
vt 0.977814 0.298346
vt 0.934720 0.292608
vt 0.977831 0.272219
vt 0.934559 0.280101
vt 0.419637 0.047382
vt 0.410322 0.039494
vt 0.970831 0.939804
vt 0.989044 0.967242
s 1
usemtl rocks_AP2
f 12/1/1 2/2/2 5/3/2 10/4/1
f 2/2/2 1/5/3 4/6/3 5/3/2
f 10/7/4 5/8/5 7/9/5 9/10/4
f 3/11/6 12/12/7 11/13/8 8/14/8
f 11/15/9 12/16/9 10/17/9 9/18/9
f 8/19/10 11/20/11 9/21/11 7/22/10
f 3/23/12 8/19/10 7/22/10 6/24/12
f 1/25/13 3/23/13 6/24/13 4/26/13
f 4/27/14 6/28/14 7/9/5 5/8/5
f 1/29/15 2/30/15 12/12/7 3/11/6
