# Blender 4.0.2
# www.blender.org
mtllib Rock_Medium_Var2obj.mtl
o Rock8_LOD1
v 4.140460 1.048604 -21.378187
v 3.934776 2.844114 -21.805279
v 5.383921 4.184002 -21.205809
v 5.294042 2.796832 -21.092522
v 5.285482 1.999432 -21.055733
v 5.334690 0.760805 -21.029091
v 5.882505 1.931007 -21.152077
v 5.863727 0.550054 -21.117176
v 5.900293 2.916069 -21.202431
v 5.869595 4.359016 -21.311735
v 5.331039 4.717584 -21.574800
v 6.585361 4.107011 -21.977730
v 6.668779 2.848711 -21.965759
v 6.702209 2.060080 -21.960178
v 6.742827 0.753365 -21.924795
v 5.631449 0.822840 -22.924690
v 5.598382 2.164270 -22.900494
v 5.592123 2.862924 -22.870022
v 5.563987 3.951719 -22.788614
v 4.561374 -0.096423 -22.521990
v 5.113488 -0.096423 -22.206373
v 5.542806 -0.096423 -21.538239
v 4.693231 -0.096423 -20.795746
v 5.338953 -0.096423 -20.913370
v 4.689861 0.957967 -20.878555
v 4.037309 -0.086105 -21.379221
v 3.687091 -0.086130 -21.773430
v 3.531272 -0.086460 -22.454775
v 3.817236 1.086169 -21.713037
v 3.817105 2.161344 -21.717249
v 3.826899 0.996424 -22.555653
v 4.396379 0.701848 -22.946907
v 3.877714 2.269159 -22.510365
v 4.399279 1.933819 -22.922476
v 3.965939 2.959591 -22.504314
v 4.447684 2.632431 -22.912481
v 4.169216 3.752289 -22.474686
v 4.096284 2.892642 -21.474316
v 4.301746 3.805208 -22.016834
v 4.605408 3.969268 -21.847435
v 4.228816 3.613910 -21.512039
v 4.701764 3.637575 -21.024714
v 4.740962 4.333541 -21.112589
v 4.712218 2.719130 -20.927959
v 4.708714 2.110610 -20.905069
v 4.071764 2.271484 -21.438677
v 6.592968 1.861040 -21.268847
v 6.533670 2.796046 -21.314762
v 6.386642 4.356826 -21.394585
v 5.842805 4.719909 -21.343950
v 6.323650 4.869522 -21.450787
v 5.508420 4.630298 -21.278923
v 4.658732 4.442849 -21.685286
v 5.308891 4.849605 -21.896832
v 6.362618 5.001786 -21.717251
v 6.513138 4.813043 -22.003605
v 6.116847 5.069012 -22.001301
v 6.182192 4.853248 -22.562971
v 5.505846 4.614925 -22.709278
v 6.384109 4.322088 -22.612967
v 6.518569 4.713615 -22.198952
v 6.591414 4.084136 -22.309971
v 6.661275 2.962925 -22.344812
v 6.489327 3.282974 -22.666515
v 6.692658 2.192025 -22.319019
v 6.491610 2.595712 -22.705452
v 6.745348 0.728300 -22.296820
v 6.692424 0.436815 -21.166899
v 6.768744 -0.096423 -21.132122
v 5.818400 -0.096423 -20.971357
v 5.615164 -0.096423 -23.041323
v 5.102566 -0.086100 -23.099533
v 6.479243 -0.096423 -22.845293
v 6.515933 1.348156 -22.736086
v 5.024849 0.645006 -23.043985
v 5.008477 1.854865 -23.032560
v 4.978117 2.464843 -23.013500
v 5.077649 3.465756 -22.921368
v 4.418954 3.952452 -22.328817
v 4.633415 4.547175 -22.182976
v 6.805074 -0.096423 -22.264277
v 4.288508 -0.086101 -22.937462
vn -0.6646 0.0581 0.7450
vn -0.6599 0.0355 0.7505
vn -0.6866 0.0332 0.7263
vn -0.6918 0.0573 0.7198
vn -0.0063 -1.0000 0.0015
vn -0.0031 -1.0000 0.0007
vn -0.0019 -1.0000 -0.0006
vn -0.0054 -1.0000 -0.0016
vn -0.0074 -1.0000 0.0013
vn -0.0055 -1.0000 -0.0034
vn -0.3940 0.0537 -0.9175
vn -0.5385 0.0666 -0.8400
vn -0.5601 0.0502 -0.8269
vn -0.3931 0.0383 -0.9187
vn -0.9970 0.0655 -0.0416
vn -0.9970 0.0655 -0.0414
vn -0.9614 0.2399 0.1348
vn -0.9715 0.2347 0.0320
vn -0.7681 0.0459 0.6387
vn -0.7304 0.0292 0.6824
vn -0.6927 0.0335 0.7204
vn -0.9947 0.1012 0.0174
vn -0.9947 0.1011 0.0174
vn -0.0312 0.0684 -0.9972
vn -0.0004 0.0369 -0.9993
vn 0.0195 0.0221 -0.9996
vn -0.4034 0.0340 -0.9144
vn -0.3755 0.1867 -0.9078
vn -0.0599 0.1600 -0.9853
vn -0.7758 0.1432 0.6146
vn -0.9427 0.3110 0.1207
vn -0.9432 0.3170 0.0998
vn -0.3380 0.2770 -0.8994
vn -0.3800 0.3264 -0.8655
vn -0.2295 0.2684 -0.9356
vn -0.6623 0.0835 0.7446
vn -0.6763 0.1101 0.7284
vn -0.5882 0.0470 -0.8073
vn -0.9413 0.3019 0.1513
vn -0.9776 0.1117 0.1783
vn -0.9866 0.0687 0.1480
vn -0.6513 0.0271 0.7583
vn -0.9588 0.1760 0.2231
vn 0.2395 0.0654 0.9687
vn 0.2032 0.0637 0.9771
vn 0.1912 0.0863 0.9777
vn 0.2061 0.0921 0.9742
vn -0.2959 0.8920 0.3416
vn -0.3911 0.8738 0.2889
vn -0.3414 0.8896 0.3034
vn -0.2703 0.8964 0.3513
vn 0.1498 0.0444 0.9877
vn 0.1367 0.0522 0.9892
vn 0.1746 0.0639 0.9826
vn 0.1730 0.0630 0.9829
vn -0.4759 0.8154 0.3296
vn -0.5159 0.8110 0.2759
vn -0.7320 0.0559 0.6790
vn 0.2047 0.0660 0.9766
vn 0.1395 0.0804 0.9870
vn 0.2077 0.0319 0.9777
vn 0.9867 0.0577 0.1519
vn 0.9938 0.0507 0.0991
vn 0.9858 0.0695 0.1530
vn 0.9715 0.0758 0.2246
vn 0.1177 0.0853 0.9894
vn 0.9785 0.0973 0.1820
vn 0.9596 0.1054 0.2609
vn 0.1733 0.0804 0.9816
vn 0.9692 0.1356 0.2056
vn 0.9459 0.1452 0.2900
vn -0.1848 0.8959 0.4039
vn -0.1904 0.8995 0.3933
vn -0.3219 0.8868 0.3315
vn -0.4453 0.8531 0.2718
vn 0.2517 0.0297 0.9673
vn -0.1957 0.9027 0.3833
vn -0.2676 0.8993 -0.3459
vn -0.2676 0.9021 -0.3386
vn -0.2676 0.9020 -0.3388
vn 0.1692 0.1125 0.9791
vn 0.1688 0.1120 0.9793
vn 0.5486 0.7912 -0.2702
vn 0.5581 0.7832 -0.2739
vn -0.2675 0.9065 -0.3267
vn 0.9584 0.1240 -0.2572
vn 0.9941 0.1082 -0.0034
vn 0.8154 0.2645 -0.5149
vn 0.8617 0.1596 -0.4817
vn 0.1734 0.0934 -0.9804
vn 0.1496 0.1368 -0.9792
vn 0.1728 0.0961 -0.9802
vn 0.1538 0.1394 -0.9782
vn 0.9691 0.0317 -0.2446
vn 0.9717 0.0604 -0.2285
vn 0.1872 0.0644 -0.9802
vn 0.1888 0.0633 -0.9800
vn 0.8896 0.0625 -0.4523
vn 0.8981 0.0262 -0.4390
vn 0.1966 0.0339 -0.9799
vn 0.1975 0.0308 -0.9798
vn 0.9958 0.0493 0.0776
vn 0.9688 0.0339 -0.2456
vn 0.1935 0.0552 -0.9795
vn 0.1876 0.0539 -0.9808
vn 0.1732 0.0812 0.9815
vn 0.9933 0.0696 0.0927
vn -0.0000 -1.0000 -0.0000
vn 0.2326 0.0600 0.9707
vn -0.0033 -1.0000 -0.0090
vn 0.9953 0.0838 0.0494
vn 0.8919 0.0258 -0.4516
vn -0.4904 0.3450 -0.8003
vn -0.6004 0.7863 0.1455
vn 0.1684 0.1139 0.9791
vn 0.5228 0.8118 -0.2602
vn -0.5902 0.1084 -0.8000
vn 0.9891 0.1436 0.0317
vn 0.1688 0.1164 0.9787
vn 0.8843 0.0247 -0.4662
vn 0.1466 0.1579 0.9765
vn 0.1257 0.1533 0.9801
vn -0.9790 0.1863 0.0829
vn 0.1734 0.0950 -0.9803
vn -0.0100 -0.9999 -0.0052
vn -0.0100 -0.9999 -0.0135
vn 0.1883 0.0892 -0.9780
vn 0.2012 0.1256 0.9715
vn 0.2173 0.1017 0.9708
vn -0.0099 -0.9996 -0.0271
vt 0.146562 0.648554
vt 0.105919 0.644629
vt 0.103892 0.615527
vt 0.148322 0.614852
vt 0.497487 0.741053
vt 0.543452 0.715723
vt 0.556072 0.743988
vt 0.518976 0.767611
vt 0.486317 0.724165
vt 0.524030 0.700319
vt 0.616775 0.286264
vt 0.650927 0.281821
vt 0.645186 0.325237
vt 0.617817 0.317368
vt 0.060360 0.919744
vt 0.068861 0.949577
vt 0.042333 0.949799
vt 0.034229 0.923343
vt 0.061496 0.595066
vt 0.103301 0.598017
vt 0.057052 0.610372
vt 0.826650 0.476676
vt 0.858796 0.480643
vt 0.857052 0.522493
vt 0.826650 0.526146
vt 0.791794 0.464057
vt 0.823289 0.465795
vt 0.818236 0.496284
vt 0.793603 0.492740
vt 0.792549 0.539760
vt 0.814943 0.543927
vt 0.811746 0.570559
vt 0.791781 0.563688
vt 0.064956 0.964643
vt 0.040641 0.964188
vt 0.001459 0.946819
vt 0.003438 0.927513
vt 0.626213 0.510106
vt 0.614710 0.519215
vt 0.593583 0.485044
vt 0.608500 0.449997
vt 0.626177 0.462098
vt 0.037388 0.639870
vt 0.002301 0.636548
vt 0.003644 0.609475
vt 0.032240 0.608894
vt 0.650248 0.374915
vt 0.623537 0.364841
vt 0.011797 0.964655
vt 0.950706 0.171153
vt 0.957438 0.204895
vt 0.931634 0.195960
vt 0.931634 0.173328
vt 0.060940 0.641545
vt 0.955888 0.151526
vt 0.931911 0.153242
vt 0.433322 0.252217
vt 0.457062 0.253743
vt 0.465036 0.307608
vt 0.436814 0.288105
vt 0.918926 0.852338
vt 0.928133 0.878917
vt 0.905906 0.882081
vt 0.905389 0.849370
vt 0.477687 0.218420
vt 0.505518 0.213723
vt 0.506087 0.250319
vt 0.481369 0.256723
vt 0.971729 0.181865
vt 0.963541 0.162687
vt 0.149250 0.595074
vt 0.452796 0.174471
vt 0.473027 0.164924
vt 0.454351 0.222711
vt 0.431980 0.404219
vt 0.405634 0.395237
vt 0.407098 0.364518
vt 0.432337 0.367764
vt 0.504828 0.157924
vt 0.409467 0.315509
vt 0.433177 0.306745
vt 0.484862 0.313107
vt 0.410199 0.287874
vt 0.422646 0.280985
vt 0.432420 0.286067
vt 0.905412 0.835530
vt 0.905389 0.815324
vt 0.915329 0.810460
vt 0.932328 0.848766
vt 0.948383 0.874790
vt 0.431434 0.228541
vt 0.929425 0.816371
vt 0.952484 0.811494
vt 0.963200 0.838096
vt 0.485044 0.327282
vt 0.471495 0.324112
vt 0.114361 0.800900
vt 0.097845 0.796117
vt 0.097662 0.787932
vt 0.114363 0.778090
vt 0.396506 0.315633
vt 0.403124 0.291315
vt 0.020410 0.270786
vt 0.017639 0.295599
vt 0.004661 0.286825
vt 0.001752 0.265310
vt 0.472176 0.491672
vt 0.491577 0.472724
vt 0.473454 0.517777
vt 0.439271 0.505625
vt 0.446226 0.525989
vt 0.391939 0.389323
vt 0.392604 0.359231
vt 0.436891 0.465132
vt 0.472327 0.449093
vt 0.004869 0.327470
vt 0.018555 0.339185
vt 0.020635 0.369155
vt 0.004769 0.354495
vt 0.436843 0.438147
vt 0.472712 0.421834
vt 0.404245 0.446243
vt 0.390465 0.446958
vt 0.436844 0.389499
vt 0.472382 0.369515
vt 0.505239 0.311566
vt 0.432737 0.460463
vt 0.608974 0.723423
vt 0.600927 0.766835
vt 0.563363 0.767450
vt 0.428166 0.183536
vt 0.567685 0.686495
vt 0.599830 0.699122
vt 0.389321 0.478516
vt 0.496440 0.410102
vt 0.496337 0.434444
vt 0.024359 0.426736
vt 0.005158 0.403244
vt 0.954962 0.872096
vt 0.992043 0.885916
vt 0.992430 0.909793
vt 0.954962 0.920547
vt 0.968408 0.144335
vt 0.440170 0.315285
vt 0.102192 0.808895
vt 0.625676 0.392056
vt 0.651000 0.401639
vt 0.649476 0.431872
vt 0.433172 0.480977
vt 0.504608 0.331830
vt 0.026808 0.458512
vt 0.001754 0.459000
vt 0.468870 0.139780
vt 0.506067 0.137309
vt 0.830243 0.432820
vt 0.857435 0.434620
vt 0.473931 0.333798
vt 0.493684 0.334256
vt 0.495802 0.363004
vt 0.484224 0.696745
vt 0.516473 0.682914
vt 0.439781 0.333472
vt 0.447250 0.141463
vt 0.424409 0.143022
vt 0.549052 0.681578
vt 0.544548 0.766870
s 1
usemtl rocks_AP2
f 23/1/1 25/2/2 1/3/3 26/4/4
f 26/5/5 21/6/6 22/7/7 23/8/8
f 27/9/9 20/10/10 21/6/6 26/5/5
f 82/11/11 28/12/12 31/13/13 32/14/14
f 33/15/15 30/16/16 2/17/17 35/18/18
f 30/19/19 29/20/20 1/3/3 46/21/21
f 31/22/22 29/23/23 30/24/16 33/25/15
f 72/26/24 82/27/11 32/28/14 75/29/25
f 76/30/26 34/31/27 36/32/28 77/33/29
f 30/16/19 46/34/21 38/35/30 2/17/17
f 35/18/18 2/17/17 39/36/31 37/37/32
f 37/38/33 79/39/34 78/40/35 77/41/29 36/42/28
f 44/43/36 42/44/37 41/45/37 38/46/30
f 32/14/14 31/13/13 33/47/38 34/48/27
f 2/17/17 38/35/30 41/49/39 39/36/31
f 40/50/40 42/51/41 43/52/41 53/53/40
f 44/43/36 38/46/30 46/21/21 45/54/42
f 79/55/43 40/50/40 53/53/40 80/56/43
f 44/57/44 4/58/45 3/59/46 42/60/47
f 11/61/48 53/62/49 43/63/50 52/64/51
f 7/65/52 47/66/53 48/67/54 9/68/55
f 41/69/56 42/51/56 40/50/57 39/70/57
f 27/71/58 26/4/4 1/3/3 29/20/20
f 25/2/2 45/54/42 46/21/21 1/3/3
f 6/72/59 8/73/60 7/65/52 5/74/61
f 5/74/61 7/65/52 9/68/55 4/58/45
f 47/75/62 14/76/63 13/77/64 48/78/65
f 8/73/60 68/79/66 47/66/53 7/65/52
f 48/78/65 13/77/64 12/80/67 49/81/68
f 4/58/45 9/68/55 10/82/69 3/59/46
f 49/81/68 12/80/67 56/83/70 55/84/71 51/85/71
f 11/61/48 52/64/51 50/86/72 51/87/72 55/88/73
f 54/89/74 80/90/75 53/62/49 11/61/48
f 45/91/76 5/74/61 4/58/45 44/57/44
f 57/92/77 54/89/74 11/61/48 55/88/73
f 58/93/78 59/94/79 54/89/80 57/92/78
f 3/59/46 10/82/69 50/95/81 52/96/82
f 57/97/83 56/98/83 61/99/84 58/100/84
f 59/94/79 80/90/85 54/89/80
f 12/80/67 62/101/86 61/102/87 56/83/70
f 61/103/88 62/104/86 60/105/89 58/106/88
f 19/107/90 78/108/35 59/109/91
f 60/110/92 19/107/90 59/109/91 58/111/93
f 14/76/63 65/112/94 63/113/95 13/77/64
f 64/114/96 18/115/97 19/107/90 60/110/92
f 64/116/98 63/117/95 65/118/94 66/119/99
f 66/120/100 17/121/101 18/115/97 64/114/96
f 15/122/102 67/123/103 65/112/94 14/76/63
f 74/124/104 16/125/105 17/121/101 66/120/100
f 9/68/55 48/67/54 49/126/106 10/82/69
f 68/127/107 15/122/102 14/76/63 47/75/62
f 22/7/7 81/128/108 69/129/108 70/130/108
f 25/131/109 6/72/59 5/74/61 45/91/76
f 20/10/10 71/132/110 73/133/108 21/6/6
f 21/6/6 73/133/108 81/128/108 22/7/7
f 67/123/103 15/122/102 68/127/107 81/134/111
f 17/121/101 76/135/26 77/136/29 18/115/97
f 66/119/99 65/118/94 67/137/103 74/138/112
f 18/115/97 77/136/29 78/108/35 19/107/90
f 13/77/64 63/113/95 62/101/86 12/80/67
f 78/139/35 79/140/34 80/141/113 59/142/113
f 60/105/89 62/104/86 63/117/95 64/116/98
f 79/55/114 37/143/114 39/70/57 40/50/57
f 42/60/47 3/59/46 52/96/82 43/144/115
f 57/97/83 55/145/116 56/98/83
f 36/146/28 35/147/117 37/148/33
f 34/48/27 33/47/38 35/147/117 36/146/28
f 75/29/25 32/28/14 34/31/27 76/30/26
f 69/149/118 81/134/111 68/127/107
f 10/82/69 49/126/106 51/150/119 50/95/81
f 74/138/112 67/137/103 81/151/120 73/152/120
f 70/153/121 69/154/122 68/79/66 8/73/60
f 28/155/123 27/156/123 29/23/23 31/22/22
f 71/157/124 72/158/24 75/159/25 16/125/105
f 28/160/125 82/161/126 20/10/10 27/9/9
f 73/162/127 71/157/124 16/125/105 74/124/104
f 70/153/121 8/73/60 6/72/59 24/163/128
f 16/125/105 75/159/25 76/135/26 17/121/101
f 23/164/129 24/163/128 6/72/59 25/131/109
f 82/161/126 72/165/130 71/132/110 20/10/10
f 23/8/8 22/7/7 70/130/108 24/166/108
