# Blender 4.0.2
# www.blender.org
mtllib Rock_Medium_Var1.mtl
o Rock9_LOD1
v 12.808093 1.255365 -21.072556
v 12.956466 1.992523 -21.826464
v 11.024236 2.081202 -20.717237
v 10.955153 2.756035 -20.803608
v 10.089402 2.485562 -20.922035
v 10.153395 3.018626 -20.993696
v 9.088585 2.004767 -22.647104
v 10.651478 2.059635 -23.343697
v 10.660196 2.376611 -23.293146
v 10.653087 1.734684 -23.395939
v 10.660810 0.336350 -23.684563
v 10.562968 -0.061111 -22.084248
v 12.075744 -0.061111 -20.664902
v 9.847108 0.644631 -19.816706
v 9.074873 2.185462 -22.044504
v 12.183156 -0.061111 -21.598173
v 10.181498 -0.061111 -22.705603
v 11.329962 -0.061111 -23.114677
v 11.947285 -0.050817 -20.202692
v 11.932401 1.135998 -20.328283
v 12.984777 -0.061111 -21.106524
v 13.762909 -0.061111 -21.658308
v 13.319735 1.295481 -21.544802
v 13.770423 -0.050808 -22.722153
v 12.489312 -0.061111 -23.463800
v 13.326509 1.297900 -22.852999
v 12.472467 0.844954 -23.477764
v 13.155154 1.963612 -22.745535
v 12.424391 1.385426 -23.414671
v 13.244575 1.595995 -21.622868
v 12.978221 2.159041 -22.788174
v 12.806442 2.338767 -22.737257
v 12.302284 1.727356 -23.417400
v 12.585304 2.419448 -22.034975
v 12.817076 1.996686 -21.247047
v 11.918801 1.728478 -20.427189
v 12.675182 2.166744 -21.280500
v 12.938243 1.816147 -21.241966
v 11.923451 1.531003 -20.394255
v 11.087099 1.392271 -20.620230
v 11.005578 0.951267 -20.589996
v 10.736547 1.149932 -19.815046
v 10.017011 1.943578 -20.843685
v 9.194571 2.255934 -21.117636
v 9.395179 2.957706 -21.140274
v 8.979620 1.890372 -22.068235
v 9.097843 1.545904 -21.100788
v 8.957990 0.394164 -20.880447
v 9.184007 1.443035 -20.569113
v 8.920417 1.601389 -22.066139
v 8.796789 0.896480 -22.024012
v 8.892638 0.715321 -22.587721
v 9.264402 2.312644 -23.112150
v 9.107460 2.284992 -22.606335
v 9.154229 2.820582 -22.594616
v 9.294609 2.619266 -23.066137
v 9.323918 2.920746 -23.021061
v 11.610288 1.417570 -23.569851
v 11.633790 1.114412 -23.627815
v 11.510771 0.534012 -23.749914
v 11.095074 -0.051148 -23.822281
v 10.540215 -0.050863 -23.705879
v 9.620264 -0.061111 -23.401686
v 9.015637 -0.053622 -23.064079
v 8.704991 -0.053842 -22.277826
v 10.998310 -0.061111 -20.597784
v 9.120975 -0.054190 -19.995644
v 9.127300 0.416179 -19.999905
v 9.801228 -0.050772 -19.821386
v 10.632886 -0.050772 -19.705399
v 10.637280 0.853516 -19.704182
v 10.080330 1.587380 -20.182146
v 9.223388 1.691082 -23.208462
v 10.771029 3.515261 -23.121914
v 12.502289 2.413026 -22.558622
v 12.079810 3.414165 -22.314146
v 12.100730 2.480563 -21.808598
v 12.016676 3.284136 -21.525520
v 11.931998 1.908104 -20.462357
v 11.886799 3.117151 -20.661123
v 10.711326 3.500425 -20.922966
v 10.987042 3.638466 -21.383886
v 10.207817 3.641045 -21.048176
v 9.469049 3.850362 -21.242258
v 9.389454 4.014658 -21.629921
v 9.248236 3.771978 -22.070614
v 9.797759 4.113802 -22.071611
v 11.053185 3.814324 -21.879992
v 9.703556 3.814661 -22.926584
v 9.162282 3.642895 -22.353405
vn -0.3226 0.0712 0.9439
vn -0.2784 0.1267 0.9521
vn -0.2179 0.1332 0.9668
vn 0.0052 -0.9998 0.0202
vn 0.0006 -1.0000 0.0006
vn 0.0011 -1.0000 -0.0019
vn 0.0087 -0.9998 0.0179
vn 0.9502 0.3116 0.0074
vn 0.9556 0.2946 0.0067
vn 0.0014 -1.0000 -0.0009
vn 0.0025 -1.0000 -0.0015
vn 0.0016 -1.0000 -0.0029
vn -0.0006 -0.9999 -0.0110
vn -0.0037 -0.9999 -0.0129
vn 0.0025 -1.0000 -0.0022
vn 0.7293 0.1455 0.6685
vn 0.6448 0.1581 0.7478
vn 0.6415 0.0951 0.7612
vn 0.6399 0.1090 0.7607
vn 0.0724 0.1150 -0.9907
vn 0.0097 0.1777 -0.9840
vn 0.4026 0.1894 -0.8956
vn 0.4257 0.0758 -0.9017
vn 0.9107 0.4089 0.0578
vn 0.7348 0.6634 0.1409
vn 0.7359 0.6590 0.1553
vn 0.8905 0.4472 0.0844
vn -0.0614 0.1557 -0.9859
vn 0.3986 0.2628 -0.8787
vn 0.1510 0.9879 -0.0361
vn 0.1633 0.9489 0.2701
vn 0.7194 0.6803 0.1401
vn 0.7188 0.6798 0.1457
vn 0.1640 0.9161 0.3660
vn 0.3523 0.5510 -0.7565
vn 0.5074 0.3341 -0.7943
vn -0.2585 0.1201 0.9585
vn -0.1981 0.1288 0.9717
vn 0.5927 0.3134 0.7420
vn 0.6156 0.1617 0.7713
vn 0.6168 0.1000 0.7808
vn 0.6354 0.0867 0.7673
vn -0.2125 0.1265 0.9689
vn -0.2024 0.1209 0.9718
vn 0.6425 0.0861 0.7614
vn 0.3428 0.8444 0.4117
vn -0.2018 0.1253 0.9714
vn -0.2061 0.1264 0.9703
vn 0.9245 -0.0074 0.3811
vn 0.9253 -0.0465 0.3763
vn -0.2023 0.1164 0.9724
vn 0.9199 -0.1567 0.3595
vn -0.9658 0.2190 0.1386
vn -0.9653 0.1589 0.2073
vn -0.9782 0.1417 0.1517
vn -0.9764 0.2026 0.0742
vn -0.3844 0.8444 0.3730
vn -0.9691 0.1593 0.1884
vn -0.9853 0.1588 0.0637
vn -0.9628 0.1091 0.2472
vn -0.9771 0.0979 0.1888
vn -0.9776 0.1017 0.1843
vn -0.9847 0.0247 0.1728
vn -0.9747 0.1248 0.1856
vn -0.9938 0.1064 0.0312
vn -0.2150 0.1196 0.9693
vn -0.2506 0.1154 0.9612
vn -0.9984 0.0562 0.0117
vn -0.8959 0.0928 -0.4346
vn -0.8267 0.0602 -0.5594
vn -0.9594 0.1748 -0.2213
vn -0.9720 0.1390 -0.1893
vn -0.8253 0.0643 -0.5610
vn -0.7305 0.0305 -0.6822
vn -0.1336 0.1808 -0.9744
vn -0.1343 0.1590 -0.9781
vn -0.1305 0.1607 -0.9783
vn -0.1255 0.1876 -0.9742
vn -0.9962 0.0705 0.0507
vn -0.9706 0.1544 0.1844
vn -0.1341 0.1599 -0.9780
vn -0.1340 0.1602 -0.9780
vn -0.1309 0.1599 -0.9784
vn -0.1311 0.1598 -0.9784
vn -0.2019 0.1304 -0.9707
vn -0.1759 0.1530 -0.9724
vn -0.8560 0.2375 -0.4592
vn -0.9441 0.1138 -0.3093
vn -0.2559 0.0843 -0.9630
vn 0.1545 0.0244 -0.9877
vn 0.7372 0.6519 0.1778
vn 0.7603 0.6149 0.2093
vn 0.5403 0.2231 -0.8113
vn -0.2830 0.0595 -0.9573
vn 0.5318 0.1026 -0.8406
vn -0.0025 -1.0000 -0.0009
vn -0.0023 -1.0000 -0.0046
vn -0.1826 0.0047 0.9832
vn -0.2771 0.2575 0.9257
vn -0.3538 0.3174 0.8798
vn -0.2490 0.0108 0.9684
vn -0.9477 0.1229 -0.2945
vn -0.9615 0.1346 -0.2395
vn -0.3325 0.4289 0.8399
vn -0.3874 0.4412 0.8095
vn -0.1396 0.0007 0.9902
vn -0.1843 0.1844 0.9654
vn -0.2302 0.4024 0.8861
vn -0.2763 0.1099 0.9548
vn 0.7179 0.6791 0.1532
vn 0.2372 0.9221 -0.3056
vn 0.2397 0.9246 -0.2960
vn 0.4945 0.3764 -0.7834
vn 0.2772 0.9108 0.3061
vn 0.2541 0.9135 0.3176
vn 0.3388 0.8995 0.2758
vn 0.3945 0.8842 0.2502
vn -0.2016 0.7878 -0.5820
vn 0.2311 0.9157 0.3288
vn 0.2882 0.9101 0.2977
vn 0.5983 0.3606 0.7155
vn 0.1631 0.9193 0.3583
vn 0.1621 0.9172 0.3638
vn -0.1985 0.1289 0.9716
vn -0.2008 0.1186 0.9724
vn -0.2077 0.1081 0.9722
vn 0.1640 0.9211 0.3531
vn -0.2092 0.1180 0.9707
vn -0.5101 0.8243 -0.2455
vn -0.5112 0.8279 -0.2307
vn -0.5066 0.8135 -0.2857
vn 0.2440 0.9288 -0.2791
vn -0.8163 0.2829 -0.5036
vn 0.9399 0.1787 0.2911
vn 0.9724 0.1056 0.2081
vn 0.9867 0.0570 0.1523
vn -0.0015 -0.9999 0.0110
vn -0.0023 -1.0000 0.0051
vn -0.0012 -1.0000 0.0040
vn -0.0020 -1.0000 0.0013
vn -0.0033 -1.0000 0.0024
vn -0.0050 -1.0000 0.0010
vn -0.3346 0.0493 0.9411
vn -0.0067 -1.0000 0.0010
vn 0.4351 0.0221 -0.9001
vn 0.5299 0.0539 -0.8463
vn 0.6482 0.0773 0.7576
vt 0.651645 0.074319
vt 0.656860 0.060474
vt 0.687334 0.074419
vt 0.684932 0.092018
vt 0.279975 0.375010
vt 0.269511 0.390031
vt 0.194329 0.403135
vt 0.230288 0.393676
vt 0.024709 0.912158
vt 0.024709 0.856393
vt 0.074175 0.861067
vt 0.065227 0.915759
vt 0.252791 0.422608
vt 0.179576 0.441314
vt 0.263120 0.489640
vt 0.283665 0.521687
vt 0.261852 0.518385
vt 0.216032 0.486476
vt 0.710776 0.802892
vt 0.723181 0.818785
vt 0.703772 0.831877
vt 0.698598 0.805171
vt 0.886707 0.206395
vt 0.884031 0.183313
vt 0.908730 0.162917
vt 0.917990 0.181718
vt 0.966170 0.268081
vt 0.956639 0.271778
vt 0.950727 0.234817
vt 0.966171 0.221971
vt 0.879546 0.172543
vt 0.900242 0.151414
vt 0.001372 0.777888
vt 0.001382 0.746392
vt 0.012782 0.762053
vt 0.008270 0.790578
vt 0.947988 0.273404
vt 0.931626 0.248512
vt 0.950700 0.339574
vt 0.943305 0.369737
vt 0.925800 0.360198
vt 0.925802 0.304050
vt 0.602757 0.804855
vt 0.618875 0.840272
vt 0.610384 0.842907
vt 0.659610 0.053171
vt 0.698669 0.050487
vt 0.731929 0.868353
vt 0.724743 0.870817
vt 0.731507 0.820415
vt 0.643320 0.802878
vt 0.653026 0.839688
vt 0.662343 0.045881
vt 0.709656 0.026184
vt 0.710380 0.875781
vt 0.655305 0.404972
vt 0.667366 0.360107
vt 0.689497 0.379632
vt 0.689497 0.412491
vt 0.738988 0.046496
vt 0.734689 0.066717
vt 0.882986 0.977794
vt 0.843946 0.976426
vt 0.849548 0.939810
vt 0.884900 0.941662
vt 0.743385 0.025839
vt 0.826477 0.977769
vt 0.837888 0.944492
vt 0.083713 0.539058
vt 0.110157 0.530239
vt 0.093131 0.574493
vt 0.082191 0.578744
vt 0.450861 0.966371
vt 0.460896 0.928095
vt 0.478373 0.938906
vt 0.478366 0.977045
vt 0.057175 0.547937
vt 0.071308 0.583620
vt 0.144370 0.521541
vt 0.155294 0.534057
vt 0.151962 0.554042
vt 0.764763 0.284001
vt 0.782263 0.319117
vt 0.763901 0.318999
vt 0.012491 0.555077
vt 0.044982 0.591068
vt 0.771442 0.036996
vt 0.770037 0.065052
vt 0.782249 0.228573
vt 0.745111 0.238945
vt 0.751385 0.216382
vt 0.780356 0.195628
vt 0.124095 0.585926
vt 0.104670 0.593673
vt 0.064610 0.745854
vt 0.134458 0.742935
vt 0.131857 0.768454
vt 0.097079 0.778511
vt 0.577037 0.510411
vt 0.588686 0.513943
vt 0.555553 0.561170
vt 0.542958 0.558728
vt 0.151184 0.566559
vt 0.002284 0.521593
vt 0.046711 0.529261
vt 0.600334 0.517476
vt 0.631345 0.538968
vt 0.610924 0.576954
vt 0.567758 0.563943
vt 0.553350 0.504082
vt 0.488215 0.548454
vt 0.510620 0.591619
vt 0.488813 0.582582
vt 0.523836 0.593334
vt 0.016065 0.742905
vt 0.027972 0.743735
vt 0.038031 0.764408
vt 0.016896 0.760460
vt 0.474394 0.540709
vt 0.469393 0.562241
vt 0.941356 0.214367
vt 0.948946 0.211817
vt 0.588057 0.804474
vt 0.600552 0.846813
vt 0.483351 0.504085
vt 0.567487 0.800066
vt 0.574059 0.843608
vt 0.310632 0.490467
vt 0.321561 0.523562
vt 0.789387 0.914374
vt 0.792802 0.941260
vt 0.764041 0.934809
vt 0.762639 0.916088
vt 0.040086 0.744559
vt 0.048479 0.765767
vt 0.801076 0.980101
vt 0.762634 0.980274
vt 0.822166 0.912556
vt 0.824207 0.947863
vt 0.827727 0.960334
vt 0.765540 0.091898
vt 0.085768 0.799226
vt 0.059464 0.791028
vt 0.933647 0.217473
vt 0.724712 0.662150
vt 0.692481 0.650020
vt 0.698257 0.602261
vt 0.744906 0.622170
vt 0.849981 0.694455
vt 0.849981 0.608390
vt 0.907315 0.625840
vt 0.906308 0.667821
vt 0.677891 0.596863
vt 0.693217 0.556698
vt 0.724597 0.563439
vt 0.918612 0.654434
vt 0.917071 0.614238
vt 0.934004 0.590631
vt 0.933796 0.654757
vt 0.657275 0.601716
vt 0.658745 0.551718
vt 0.739416 0.821989
vt 0.738730 0.866066
vt 0.671996 0.660659
vt 0.657317 0.652492
vt 0.657268 0.622458
vt 0.678808 0.001746
vt 0.728066 0.001374
vt 0.749001 0.002047
vt 0.048404 0.789178
vt 0.779214 0.003002
vt 0.698839 0.681614
vt 0.688031 0.673913
vt 0.267303 0.967028
vt 0.295695 0.954648
vt 0.295704 0.992040
vt 0.278850 0.997557
vt 0.850857 0.700014
vt 0.892207 0.704507
vt 0.893460 0.735178
vt 0.861006 0.730551
vt 0.894458 0.769628
vt 0.850835 0.786425
vt 0.335013 0.375136
vt 0.363442 0.390599
vt 0.309741 0.402360
vt 0.305237 0.462565
vt 0.386169 0.405912
vt 0.369999 0.495163
vt 0.380695 0.991988
vt 0.334167 0.991988
vt 0.340073 0.954603
vt 0.378811 0.952766
vt 0.347810 0.519614
vt 0.030589 0.830850
vt 0.072930 0.848776
vt 0.533238 0.791834
vt 0.518571 0.846784
vt 0.879496 0.233888
vt 0.931310 0.214004
vt 0.665528 0.889884
s 1
usemtl rocks_AP2
f 20/1/1 39/2/2 40/3/3 41/4/1
f 19/5/4 13/6/5 22/7/6 21/8/7
f 24/9/8 26/10/9 23/11/9 22/12/8
f 13/6/5 16/13/10 24/14/11 22/7/6
f 18/15/12 62/16/13 61/17/14 25/18/15
f 30/19/16 38/20/17 1/21/18 23/22/19
f 60/23/20 59/24/21 29/25/22 27/26/23
f 28/27/24 31/28/25 2/29/26 30/30/27
f 59/24/21 58/31/28 33/32/29 29/25/22
f 75/33/30 77/34/31 34/35/31 32/36/30
f 31/28/25 32/37/32 34/38/33 2/29/26
f 37/39/34 34/40/31 77/41/31 79/42/34
f 33/43/29 32/44/35 31/45/36
f 39/2/2 36/46/37 3/47/38 40/3/3
f 36/48/39 39/49/40 38/20/17 35/50/39
f 16/13/10 18/15/12 25/18/15 24/14/11
f 22/51/41 23/22/19 1/21/18 21/52/42
f 36/46/37 79/53/43 4/54/44 3/47/38
f 20/55/45 1/21/18 38/20/17 39/49/40
f 40/56/46 43/57/46 72/58/46 42/59/46
f 40/3/3 3/47/38 5/60/47 43/61/48
f 66/62/49 41/63/50 71/64/50 70/65/49
f 3/47/38 4/54/44 6/66/51 5/60/47
f 41/63/50 40/67/52 42/68/52 71/64/50
f 44/69/53 45/70/54 15/71/55 46/72/56
f 43/73/57 47/74/57 49/75/57 72/76/57
f 47/77/58 44/69/53 46/72/56 50/78/59
f 45/70/54 84/79/60 85/80/60 86/81/61 15/71/55
f 48/82/62 67/83/63 68/84/64
f 48/85/62 47/77/58 50/78/59 51/86/65
f 5/60/47 6/66/51 45/87/66 44/88/67
f 65/89/68 51/90/65 52/91/69 64/92/70
f 46/72/56 15/71/55 55/93/71 54/94/72
f 73/95/73 63/96/74 64/97/70 52/98/69
f 53/99/75 56/100/76 8/101/77 10/102/78
f 15/71/55 86/81/61 90/103/79 55/93/71
f 47/77/58 48/85/62 68/104/64 49/105/80
f 57/106/81 89/107/82 74/108/83 9/109/84
f 73/110/85 53/99/75 10/102/78 11/111/86
f 11/111/86 10/102/78 59/112/21 60/113/20
f 8/101/77 9/109/84 58/114/28
f 57/115/87 56/116/88 54/117/72 55/118/71
f 62/119/89 11/111/86 60/113/20 61/120/90
f 30/30/27 2/29/26 35/121/91 38/122/92
f 29/123/22 33/43/29 31/45/36 28/124/93
f 63/125/94 73/110/85 11/111/86 62/119/89
f 27/126/23 29/123/22 28/124/93 26/127/95
f 17/128/96 63/129/97 62/16/13 18/15/12
f 69/130/98 14/131/99 68/132/100 67/133/101
f 56/116/88 53/134/102 7/135/103 54/117/72
f 53/134/102 73/95/73 52/98/69 7/135/103
f 14/131/99 72/136/104 49/137/105 68/132/100
f 67/83/63 48/82/62 51/90/65 65/89/68
f 70/138/106 71/139/107 14/131/99 69/130/98
f 9/109/84 74/108/83 58/114/28
f 71/139/107 42/140/108 72/136/104 14/131/99
f 43/61/48 5/60/47 44/88/67 47/141/109
f 51/142/65 50/143/59 7/135/103 52/98/69
f 2/29/26 34/38/33 37/144/110 35/121/91
f 89/145/111 87/146/111 88/147/112 74/148/112
f 58/149/113 74/150/113 76/151/113 75/152/113
f 88/147/114 82/153/115 78/154/116 76/155/117
f 32/156/118 33/157/118 58/158/118 75/159/118
f 82/153/115 81/160/119 80/161/120 78/154/116
f 36/48/39 35/50/39 37/162/121 79/163/121
f 82/153/115 85/164/122 84/165/123 83/166/123 81/160/119
f 79/53/43 80/167/124 81/168/125 4/54/44
f 4/54/44 81/168/125 83/169/126 6/66/51
f 87/146/127 85/164/122 82/153/115 88/147/114
f 50/143/59 46/170/56 54/117/72 7/135/103
f 6/66/51 83/169/126 84/171/128 45/87/66
f 87/146/129 89/145/130 90/172/130 86/173/129
f 87/146/129 86/173/129 85/164/131
f 74/148/112 88/147/112 76/155/132
f 56/100/76 57/106/81 9/109/84 8/101/77
f 10/102/78 8/101/77 58/114/28 59/112/21
f 90/174/133 89/175/133 57/176/87 55/177/71
f 75/178/134 76/179/134 78/180/135 77/181/135
f 77/181/135 78/180/135 80/182/136 79/183/136
f 70/184/137 69/185/138 66/186/139
f 66/186/139 12/187/140 16/13/10 13/6/5
f 67/188/141 65/189/142 17/128/96 12/187/140
f 19/190/143 20/191/1 41/192/1 66/193/143
f 69/185/138 67/188/141 12/187/140 66/186/139
f 12/187/140 17/128/96 18/15/12 16/13/10
f 65/189/142 64/194/144 63/129/97 17/128/96
f 66/186/139 13/6/5 19/5/4
f 26/10/9 28/195/24 30/196/27 23/11/9
f 25/197/145 27/126/23 26/127/95 24/198/146
f 61/199/90 60/23/20 27/26/23 25/200/145
f 19/201/147 21/52/42 1/21/18 20/55/45
