# Blender 4.0.2
# www.blender.org
mtllib Rock_Medium_Var5.mtl
o Rock5_LOD1
v -10.710857 -0.093234 -20.616173
v -9.660674 4.140377 -21.452765
v -10.348086 4.168230 -22.341179
v -11.631593 2.252755 -20.926584
v -11.727567 1.347352 -21.386919
v -9.852384 2.605696 -23.081802
v -9.334496 1.413822 -22.835583
v -10.496017 -0.093234 -21.056129
v -10.249023 -0.093234 -21.627680
v -9.919456 -0.093234 -22.365267
v -10.259849 -0.093234 -20.416555
v -9.985636 -0.093234 -20.830038
v -9.738213 -0.093234 -21.291403
v -9.404325 -0.093234 -21.953888
v -11.516376 -0.082902 -22.058033
v -11.765606 -0.082898 -21.377934
v -11.480785 1.315028 -22.006216
v -10.962939 -0.085991 -20.257359
v -11.178125 -0.082926 -22.834211
v -9.649686 -0.093234 -20.103201
v -10.330835 -0.082895 -20.243614
v -10.328022 0.440920 -20.244574
v -9.649132 0.472651 -20.098927
v -9.863034 2.455085 -20.584488
v -9.114985 0.756500 -20.516821
v -9.089637 2.541261 -20.996277
v -8.848468 0.896417 -20.774908
v -9.215684 -0.093234 -20.396429
v -8.919626 -0.093234 -20.640409
v -8.485058 -0.093234 -21.088610
v -8.840782 -0.082903 -21.966606
v -8.588955 1.028122 -21.024481
v -8.876997 1.336035 -22.104551
v -8.571813 1.602896 -21.190084
v -9.048148 2.080282 -22.193502
v -8.826879 2.064955 -21.094620
v -9.285742 2.676750 -21.787544
v -9.537810 3.259657 -21.358366
v -9.090812 2.713272 -22.330259
v -9.444769 2.648392 -22.938374
v -9.140116 3.309816 -22.231792
v -9.908877 3.488986 -22.489420
v -9.482007 2.937422 -22.843510
v -9.327079 4.237622 -22.233885
v -9.968720 4.494178 -22.490528
v -9.567190 5.195964 -22.212435
v -9.847569 5.075114 -21.541473
v -9.868449 5.180189 -22.339569
v -10.246634 5.011686 -22.140236
v -10.581631 4.670892 -21.961611
v -10.131292 4.808473 -21.305246
v -10.752995 3.601465 -22.062733
v -11.226721 3.438039 -21.739868
v -10.943744 2.593050 -22.164253
v -10.095976 3.775582 -21.144043
v -10.084916 2.814097 -20.949327
v -11.103288 3.418415 -21.206499
v -11.233110 2.957102 -21.131680
v -10.946750 2.654232 -20.866812
v -11.406412 2.835256 -20.894066
v -11.412544 2.836037 -21.729239
v -11.646152 2.512333 -21.272997
v -11.505139 2.372018 -21.731995
v -11.448389 1.896634 -21.834793
v -11.724015 2.287661 -21.240725
v -11.803555 2.053028 -21.245970
v -11.854774 1.652726 -20.952429
v -11.853230 1.329101 -21.021746
v -11.529596 1.161276 -20.368649
v -11.880532 -0.082898 -20.954479
v -11.736786 -0.086114 -20.360065
v -10.953763 0.395154 -20.278456
v -10.912296 0.789261 -20.282730
v -10.924952 1.510552 -20.303663
v -10.565191 0.827823 -20.374899
v -10.524990 1.375013 -20.412701
v -10.458305 2.068661 -20.438171
v -10.887674 1.980639 -20.313822
v -10.204466 2.628520 -20.661819
v -11.304220 2.573189 -20.571356
v -11.391870 2.436603 -20.426985
v -11.494541 2.143837 -20.416006
v -11.098170 2.170713 -22.746981
v -11.101699 1.571205 -22.794970
v -11.218247 0.371194 -22.826101
v -10.520747 2.486107 -23.320898
v -10.594188 1.159734 -23.407206
v -9.678983 1.847733 -23.300703
v -10.553361 2.843704 -23.211334
v -10.542066 3.153146 -23.101236
v -10.033174 3.347127 -22.865168
v -10.825830 2.656258 -22.918741
v -10.419016 3.299841 -22.516895
v -9.407806 2.361508 -23.032530
v -9.626803 1.419523 -23.249760
v -9.776756 -0.082902 -23.270506
v -10.473936 -0.093234 -23.628019
v -9.411179 -0.093234 -22.735378
v -10.596484 -0.083034 -20.259197
v -10.568429 0.402353 -20.336018
vn -0.9338 0.0207 -0.3571
vn -0.9223 0.0562 -0.3824
vn -0.8325 0.0626 -0.5505
vn -0.8401 0.0174 -0.5421
vn -0.0041 -1.0000 -0.0018
vn -0.0032 -1.0000 -0.0021
vn -0.0051 -1.0000 -0.0021
vn -0.0072 -1.0000 -0.0030
vn -0.2076 0.0192 0.9780
vn -0.1324 0.1425 0.9809
vn -0.0072 0.0774 0.9970
vn -0.0439 0.0918 0.9948
vn -0.0455 0.0438 0.9980
vn -0.0287 0.0718 0.9970
vn 0.1481 0.0866 0.9852
vn -0.0025 -0.9999 0.0100
vn -0.0036 -0.9999 0.0098
vn -0.0193 -0.9985 0.0518
vn -0.0098 -0.9992 0.0384
vn 0.1197 0.6843 0.7193
vn -0.1001 0.3303 0.9385
vn 0.4011 0.3778 0.8345
vn 0.6876 0.0377 0.7252
vn 0.6614 0.1150 0.7411
vn 0.5460 0.1763 0.8190
vn 0.6201 0.0325 0.7838
vn 0.8628 0.4824 -0.1512
vn 0.8644 0.4854 -0.1311
vn 0.6801 0.0942 0.7271
vn 0.6296 0.1953 0.7520
vn 0.6297 0.1940 0.7523
vn 0.8967 -0.0076 -0.4426
vn 0.8210 -0.0651 -0.5672
vn 0.8351 -0.0367 -0.5488
vn 0.9049 0.0124 -0.4255
vn 0.8716 0.0319 -0.4892
vn 0.9223 0.1753 -0.3445
vn -0.0000 -1.0000 -0.0000
vn 0.9293 0.1367 0.3430
vn 0.9229 0.0824 0.3760
vn 0.7053 0.0345 0.7081
vn 0.9050 0.1345 0.4036
vn 0.9050 0.1344 0.4036
vn 0.8914 0.1942 0.4094
vn 0.8668 0.1215 -0.4837
vn 0.1812 0.1569 -0.9708
vn 0.2777 0.3244 -0.9042
vn 0.2808 0.3294 -0.9015
vn 0.2795 0.3268 -0.9028
vn -0.2980 0.9326 -0.2035
vn 0.4325 0.6997 -0.5686
vn 0.4862 0.1699 0.8572
vn 0.4924 0.1674 0.8541
vn 0.4924 0.1675 0.8541
vn 0.3724 0.0757 -0.9250
vn 0.4020 0.1292 -0.9065
vn -0.3478 0.1674 -0.9225
vn -0.5631 0.1919 -0.8038
vn -0.6230 0.2300 -0.7476
vn -0.5370 0.2558 -0.8039
vn -0.5777 0.7712 0.2675
vn -0.4421 0.8713 0.2131
vn -0.2463 0.9601 0.1328
vn -0.8225 0.0694 0.5645
vn 0.5000 0.1645 0.8503
vn -0.3196 0.9449 0.0712
vn -0.7220 0.1986 -0.6628
vn -0.6601 0.1725 -0.7311
vn -0.6733 0.1972 -0.7126
vn -0.6928 0.1850 -0.6970
vn -0.6062 0.1854 -0.7734
vn -0.8693 0.4765 0.1317
vn -0.8693 0.4764 0.1317
vn -0.9296 0.2938 0.2226
vn 0.8193 0.1976 -0.5382
vn -0.6859 0.2079 -0.6974
vn 0.0574 0.6648 0.7448
vn 0.0436 0.7612 0.6471
vn -0.7933 0.1350 -0.5937
vn -0.8176 0.5637 0.1173
vn -0.8277 0.5241 0.2008
vn 0.2725 0.7773 0.5671
vn 0.2741 0.6649 0.6948
vn 0.0754 0.1857 0.9797
vn -0.8876 0.0943 -0.4509
vn -0.9067 0.0625 -0.4172
vn -0.8963 0.1504 -0.4171
vn -0.8243 0.0958 -0.5580
vn -0.8261 0.0933 -0.5558
vn -0.8360 0.5478 -0.0310
vn -0.8465 0.5253 -0.0863
vn -0.9143 0.2115 -0.3455
vn -0.9628 -0.0174 -0.2696
vn -0.9358 0.0311 -0.3513
vn -0.9582 0.0062 -0.2860
vn -0.9111 0.0663 0.4067
vn -0.8917 0.1281 0.4340
vn -0.8975 0.1614 0.4105
vn -0.9112 0.0663 0.4067
vn -0.0075 -1.0000 -0.0029
vn -0.0053 -1.0000 -0.0021
vn -0.0054 -1.0000 0.0028
vn -0.0069 -1.0000 0.0002
vn -0.8681 0.3618 0.3397
vn -0.8816 0.3478 0.3191
vn -0.0279 0.0355 0.9990
vn -0.1253 0.0333 0.9916
vn -0.1234 0.0310 0.9919
vn -0.1887 0.1521 0.9702
vn -0.1818 0.2043 0.9619
vn 0.0235 0.0371 0.9990
vn -0.1372 0.0458 0.9895
vn 0.2035 0.0712 0.9765
vn 0.0639 0.0306 0.9975
vn 0.4544 0.3302 0.8273
vn 0.4988 0.1944 0.8447
vn -0.1514 0.0551 0.9869
vn -0.8241 0.4180 0.3824
vn 0.2726 0.6172 0.7380
vn 0.2578 0.6265 0.7356
vn 0.2087 0.6328 0.7456
vn -0.7430 0.1273 -0.6571
vn -0.7344 0.0876 -0.6731
vn 0.3458 0.5678 0.7471
vn -0.8997 0.3270 0.2890
vn -0.9282 0.0921 0.3604
vn -0.0055 -0.9999 0.0094
vn -0.9036 0.3170 0.2883
vn -0.1298 0.1950 0.9722
vn -0.7817 0.2341 -0.5780
vn 0.2111 0.0562 -0.9758
vn 0.1617 0.1239 -0.9790
vn 0.2111 0.0562 -0.9759
vn 0.2757 0.3214 -0.9059
vn 0.2826 0.0807 -0.9558
vn -0.7325 0.0577 -0.6783
vn 0.8189 -0.0767 -0.5688
vn 0.8097 -0.0664 -0.5830
vn 0.3541 0.0437 -0.9342
vn 0.2833 0.3286 -0.9010
vn 0.2820 0.3318 -0.9002
vn -0.1874 0.0922 -0.9779
vn -0.8535 0.5025 -0.1380
vn 0.8876 0.2147 0.4075
vn 0.2843 0.3262 -0.9015
vn -0.0013 -1.0000 -0.0019
vn 0.0076 -0.9999 -0.0085
vn 0.0031 -1.0000 -0.0035
vn 0.7848 -0.0398 -0.6184
vn 0.9282 0.2716 -0.2545
vn 0.9485 0.0447 -0.3135
vn -0.0061 -1.0000 0.0035
vn -0.2058 -0.0023 0.9786
vn 0.5872 0.0244 0.8091
vn -0.9427 0.0239 -0.3328
vn 0.0068 -1.0000 -0.0038
vn -0.9565 0.0142 -0.2915
vn 0.0181 -0.9998 -0.0102
vn -0.7258 0.0240 -0.6875
vn 0.9512 0.0436 -0.3056
vt 0.884676 0.264245
vt 0.883159 0.318865
vt 0.852264 0.279737
vt 0.852619 0.261942
vt 0.757504 0.183559
vt 0.705680 0.186085
vt 0.705901 0.154596
vt 0.757505 0.150589
vt 0.172277 0.001798
vt 0.172160 0.022869
vt 0.162796 0.020936
vt 0.163348 0.001461
vt 0.372438 0.002306
vt 0.371827 0.021414
vt 0.358229 0.020409
vt 0.358999 0.001500
vt 0.162177 0.037849
vt 0.687332 0.111193
vt 0.660646 0.109556
vt 0.689285 0.103612
vt 0.695930 0.101074
vt 0.390547 0.708815
vt 0.400857 0.701185
vt 0.411502 0.712421
vt 0.258114 0.940343
vt 0.224091 0.958666
vt 0.224235 0.943209
vt 0.252946 0.926410
vt 0.823783 0.425399
vt 0.812569 0.452341
vt 0.792997 0.423098
vt 0.793003 0.401981
vt 0.599414 0.857550
vt 0.621663 0.854312
vt 0.639341 0.865481
vt 0.593373 0.871044
vt 0.379822 0.642979
vt 0.374652 0.680861
vt 0.316017 0.673817
vt 0.323425 0.641397
vt 0.279344 0.676191
vt 0.293469 0.643027
vt 0.682403 0.150587
vt 0.642993 0.140160
vt 0.649743 0.126816
vt 0.684015 0.130245
vt 0.409620 0.777394
vt 0.385099 0.777394
vt 0.390336 0.756126
vt 0.266248 0.962706
vt 0.224091 0.973612
vt 0.370303 0.733345
vt 0.362807 0.769080
vt 0.326932 0.760196
vt 0.336726 0.728419
vt 0.267987 0.646247
vt 0.268034 0.673178
vt 0.295470 0.693597
vt 0.265041 0.689964
vt 0.447688 0.692083
vt 0.466207 0.703340
vt 0.454467 0.712600
vt 0.431925 0.713223
vt 0.372167 0.794268
vt 0.395586 0.806916
vt 0.387237 0.820049
vt 0.354732 0.819496
vt 0.351913 0.709609
vt 0.368535 0.853782
vt 0.395748 0.858936
vt 0.394807 0.886657
vt 0.382891 0.888870
vt 0.498891 0.682103
vt 0.480237 0.674782
vt 0.509364 0.658582
vt 0.522581 0.669745
vt 0.510923 0.597538
vt 0.507456 0.614521
vt 0.480614 0.610681
vt 0.480331 0.591154
vt 0.489630 0.636682
vt 0.480314 0.628794
vt 0.894565 0.026142
vt 0.936966 0.040239
vt 0.924232 0.078818
vt 0.894522 0.068390
vt 0.300116 0.721637
vt 0.311383 0.708514
vt 0.900462 0.003884
vt 0.921853 0.001536
vt 0.413112 0.672636
vt 0.452891 0.667233
vt 0.417291 0.647032
vt 0.441682 0.647031
vt 0.142465 0.671207
vt 0.167107 0.667977
vt 0.171620 0.686055
vt 0.151641 0.693675
vt 0.245448 0.641516
vt 0.256784 0.670011
vt 0.491755 0.652011
vt 0.630596 0.957810
vt 0.617257 0.930566
vt 0.627627 0.923430
vt 0.647576 0.963655
vt 0.399458 0.648110
vt 0.152120 0.649395
vt 0.171570 0.656684
vt 0.640396 0.973606
vt 0.624150 0.974445
vt 0.981645 0.549971
vt 0.963158 0.568493
vt 0.949432 0.542457
vt 0.758480 0.677771
vt 0.754572 0.659132
vt 0.781072 0.666152
vt 0.778804 0.675664
vt 0.383021 0.656056
vt 0.886401 0.341918
vt 0.848435 0.350119
vt 0.848435 0.326648
vt 0.412803 0.701398
vt 0.755824 0.695359
vt 0.776705 0.684557
vt 0.792480 0.651046
vt 0.775874 0.638411
vt 0.790971 0.638274
vt 0.877571 0.402062
vt 0.877561 0.440448
vt 0.851964 0.421825
vt 0.849975 0.409089
vt 0.755726 0.122007
vt 0.705773 0.130328
vt 0.706556 0.111260
vt 0.753425 0.105388
vt 0.287179 0.606091
vt 0.295284 0.598571
vt 0.303309 0.619360
vt 0.287703 0.638014
vt 0.023564 0.799381
vt 0.039107 0.800307
vt 0.050477 0.824649
vt 0.001507 0.827788
vt 0.630748 0.691990
vt 0.632230 0.780414
vt 0.605173 0.779045
vt 0.617763 0.700051
vt 0.066898 0.803220
vt 0.089432 0.827823
vt 0.163628 0.059520
vt 0.172242 0.110939
vt 0.162519 0.087722
vt 0.370977 0.038636
vt 0.357880 0.035530
vt 0.371881 0.059590
vt 0.372447 0.086766
vt 0.356164 0.081300
vt 0.356157 0.063019
vt 0.586912 0.885071
vt 0.657564 0.876987
vt 0.653342 0.910340
vt 0.574202 0.910341
vt 0.085272 0.803862
vt 0.100807 0.825776
vt 0.303438 0.596711
vt 0.319516 0.601081
vt 0.953295 0.524866
vt 0.981848 0.532382
vt 0.404070 0.745219
vt 0.726174 0.291884
vt 0.725109 0.315725
vt 0.695761 0.338581
vt 0.693184 0.324176
vt 0.108104 0.821931
vt 0.319516 0.621906
vt 0.312633 0.628272
vt 0.873264 0.352973
vt 0.849975 0.354088
vt 0.709450 0.095060
vt 0.305859 0.634659
vt 0.663507 0.911839
vt 0.663508 0.953437
vt 0.711304 0.332669
vt 0.697466 0.350077
vt 0.845431 0.622492
vt 0.845432 0.673599
vt 0.811811 0.651004
vt 0.809152 0.634273
vt 0.262026 0.716920
vt 0.248414 0.713090
vt 0.841213 0.572800
vt 0.810893 0.575564
vt 0.733071 0.244952
vt 0.697806 0.272495
vt 0.371353 0.704857
vt 0.313047 0.693534
vt 0.234695 0.685620
vt 0.393828 0.692093
vt 0.290676 0.748762
vt 0.237181 0.708604
vt 0.714272 0.220107
vt 0.693328 0.207252
vt 0.680853 0.179462
vt 0.873755 0.229683
vt 0.874693 0.258787
vt 0.835514 0.234959
vt 0.832502 0.212761
vt 0.835063 0.398335
vt 0.792998 0.380735
vt 0.745237 0.222484
vt 0.004879 0.797548
vt 0.739484 0.086383
vt 0.632230 0.800832
vt 0.605037 0.800699
vt 0.750847 0.636591
vt 0.225831 0.915107
vt 0.245905 0.907624
vt 0.750846 0.581422
vt 0.779062 0.582626
vt 0.634495 0.162961
vt 0.795408 0.583332
vt 0.660181 0.187853
vt 0.733507 0.227236
vt 0.693249 0.223288
vt 0.874707 0.173826
vt 0.838806 0.168848
s 1
usemtl rocks_AP2
f 15/1/1 17/2/2 85/3/3 19/4/4
f 19/5/5 10/6/6 9/7/7 15/8/8
f 21/9/9 22/10/10 100/11/11 99/12/12
f 99/13/12 100/14/11 72/15/13 18/16/14
f 22/10/10 75/17/15 100/11/11
f 11/18/16 20/19/17 21/20/18 99/21/19
f 56/22/20 79/23/21 24/24/22
f 29/25/23 27/26/24 25/27/25 28/28/26
f 37/29/27 38/30/28 26/31/28 36/32/27
f 32/33/29 34/34/30 36/35/31 27/36/24
f 31/37/32 98/38/33 7/39/34 33/40/35
f 33/40/35 7/39/34 94/41/36 35/42/37
f 13/43/38 29/44/38 28/45/38 12/46/38
f 35/47/39 39/48/40 37/49/40
f 30/50/41 32/51/29 27/26/24 29/25/23
f 38/52/42 41/53/43 44/54/44 2/55/44
f 39/56/45 35/42/37 94/41/36 40/57/45
f 41/53/43 38/52/42 37/49/40 39/48/40
f 88/58/46 6/59/47 40/57/48 94/41/49
f 93/60/50 42/61/50 91/62/50 90/63/50
f 43/64/51 91/65/51 42/66/51 41/67/51
f 56/22/52 38/52/52 2/55/53 55/68/54
f 44/69/55 45/70/55 48/71/56 46/72/56
f 45/73/57 3/74/58 49/75/59 48/76/60
f 51/77/61 47/78/62 49/79/62 50/80/61
f 46/81/63 48/82/63 49/79/62 47/78/62
f 52/83/64 55/84/64 51/85/64 50/86/64
f 55/68/54 2/55/53 47/87/65 51/88/65
f 53/89/66 57/90/66 55/84/66 52/83/66
f 93/60/67 54/91/68 52/92/69 3/74/58
f 54/91/68 61/93/70 53/94/71 52/92/69
f 61/95/72 58/96/73 57/97/74 53/98/74
f 41/99/75 39/56/45 40/57/45 43/100/75
f 3/74/58 52/92/69 50/101/76 49/75/59
f 59/102/77 79/103/21 56/104/20 58/105/78
f 61/93/70 54/91/68 63/106/79
f 62/107/80 60/108/81 58/96/73 61/95/72
f 59/102/77 58/105/78 60/109/82 80/110/83
f 77/111/84 79/112/21 59/113/77
f 63/114/79 64/115/85 66/116/86 65/117/87
f 64/118/85 63/106/79 54/91/68
f 64/119/85 83/120/88 84/121/89
f 90/63/90 92/122/91 54/91/91 93/60/90
f 61/123/70 63/114/79 65/117/87 62/124/92
f 67/125/93 66/116/86 5/126/94 68/127/95
f 69/128/96 82/129/97 67/130/98 68/131/99
f 17/2/2 64/119/85 84/121/89 85/3/3
f 16/132/100 8/133/101 1/134/102 70/135/103
f 82/136/97 81/137/104 4/138/105 67/139/98
f 72/140/13 73/141/106 69/142/107 71/143/108
f 79/144/21 22/145/10 23/146/109 24/147/110
f 73/141/106 74/148/111 82/149/112 69/142/107
f 76/150/113 75/17/15 22/10/10 79/151/21 77/152/84
f 100/14/11 75/153/15 73/154/106 72/15/13
f 76/155/113 77/156/84 78/157/114 74/158/111
f 25/159/25 26/160/115 24/161/22 23/162/116
f 74/148/111 78/163/114 81/164/117 82/149/112
f 81/137/104 80/165/118 60/166/81 4/138/105
f 80/167/83 78/168/119 77/111/120 59/113/77
f 38/52/121 56/22/20 24/24/22 26/169/115
f 84/170/89 83/171/88 89/172/122 86/173/123
f 78/163/119 80/174/83 81/164/124
f 4/138/105 60/166/81 62/175/80 65/176/125
f 71/177/126 69/128/96 68/131/99 70/178/126
f 1/134/102 11/18/16 99/21/19 18/179/127
f 67/139/98 4/138/105 65/176/125 66/180/128
f 58/105/129 56/104/129 55/181/129 57/182/129
f 83/171/88 92/183/130 90/184/130 89/172/122
f 87/185/131 86/186/132 88/187/46 95/188/133
f 86/189/132 89/190/134 6/59/47 88/58/46
f 97/191/135 87/185/131 95/188/133 96/192/135
f 85/193/3 84/170/89 86/173/123 87/194/136
f 96/195/137 95/196/138 7/39/34 98/38/33
f 41/67/139 42/66/139 45/70/55 44/69/55
f 6/59/47 91/197/140 43/100/141 40/57/48
f 42/61/142 93/60/142 3/74/58 45/73/57
f 92/122/91 83/198/143 64/118/143 54/91/91
f 2/55/44 44/54/44 46/199/144 47/87/144
f 89/190/134 90/200/145 91/197/140 6/59/47
f 96/201/146 98/202/147 14/203/148 10/6/6
f 88/58/149 94/41/36 7/39/34 95/196/138
f 33/204/35 35/205/37 34/206/150 32/207/151
f 12/46/38 28/45/38 20/19/17 11/18/16
f 35/208/37 37/29/27 36/32/27 34/209/150
f 27/36/24 36/35/31 26/160/115 25/159/25
f 75/153/15 76/155/113 74/158/111 73/154/106
f 97/210/38 96/201/146 10/6/6 19/5/5
f 71/143/108 18/211/14 72/140/13
f 70/135/103 1/134/102 18/179/127 71/212/152
f 22/145/10 21/213/9 20/214/153 23/146/109
f 17/215/2 5/126/94 66/116/86 64/115/85
f 8/133/101 12/46/38 11/18/16 1/134/102
f 28/28/26 25/27/25 23/216/116 20/217/154
f 15/218/1 16/219/155 5/126/94 17/215/2
f 9/7/7 13/43/38 12/46/38 8/133/101
f 14/203/148 30/220/156 29/44/38 13/43/38
f 70/221/157 68/127/95 5/126/94 16/219/155
f 10/6/6 14/203/148 13/43/38 9/7/7
f 98/202/147 31/222/158 30/220/156 14/203/148
f 19/223/4 85/193/3 87/194/136 97/224/159
f 31/225/32 33/204/35 32/207/151 30/226/160
f 15/8/8 9/7/7 8/133/101 16/132/100
